<svg width="427" height="69" viewBox="0 0 427 69" fill="none" xmlns="http://www.w3.org/2000/svg">
<g clip-path="url(#clip0_8233_2004)">
<path d="M22.04 35.33V35.24C28.55 33.19 32.83 28.99 32.83 21.14C32.83 9.26995 23.64 6.94995 16.5 6.94995H0.8C0.26 6.94995 0 7.03995 0 7.48995V7.66995C0 8.20995 0.27 8.28995 0.8 8.28995H3.57C5.18 8.28995 5.27 8.55995 5.27 15.07V59.0499C5.27 65.56 5.18 65.83 3.57 65.83H0.8C0.26 65.83 0 65.9199 0 66.4499V66.6299C0 67.0799 0.27 67.1699 0.8 67.1699H17.75C26.4 67.1699 35.24 62.17 35.24 49.95C35.24 40.4 29.35 36.0299 22.04 35.32V35.33ZM12.49 8.64995H16.42C21.95 8.64995 25.16 10.79 25.16 21.5C25.16 31.49 22.48 34.79 16.68 34.79H12.49V8.64995ZM17.84 65.4899H12.49V36.49H16.42C24.36 36.49 27.13 40.0599 27.13 50.9399C27.13 61.82 24.01 65.48 17.85 65.48L17.84 65.4899Z" fill="#2C2A27"/>
<path d="M68.79 60.4L68.43 60.31C68.07 60.31 67.98 60.58 67.89 61.11C67.71 63.88 67.27 66.19 65.84 66.19C64.41 66.19 63.97 64.85 63.97 59.41V35.68C63.97 25.15 58.89 20.42 52.19 20.42C45.49 20.42 41.13 26.67 41.13 30.59C41.13 33.09 42.29 33.89 44.25 33.89C46.39 33.89 47.19 32.55 47.19 30.59C47.19 29.07 46.74 26.93 45.58 24.61C46.65 23.18 48.61 21.75 51.29 21.75C55.57 21.75 57.8 24.87 57.8 32.99V36.74C57.8 39.33 57.8 39.86 49.77 43.25C42.99 46.1 39.87 48.42 39.87 56.99C39.87 64.75 43.97 68.32 48.44 68.32C53.52 68.32 57 64.84 58.34 58.95H58.43C58.52 65.46 60.66 68.32 64.14 68.32C67.62 68.32 68.87 65.82 69.14 61.27C69.32 60.82 69.23 60.47 68.78 60.38L68.79 60.4ZM57.81 56.92C56.56 62.36 54.33 65.84 51.21 65.84C47.91 65.84 46.75 61.82 46.75 55.58C46.75 50.41 47.82 47.02 51.48 44.52C53.35 43.18 55.67 41.84 57.81 40.77V56.92Z" fill="#2C2A27"/>
<path d="M95.46 51.7501H95.1C94.56 51.7501 94.48 51.9301 94.48 52.5501C94.03 61.1201 91 65.84 86.09 65.84C80.02 65.84 78.33 59.4201 78.33 44.3401C78.33 27.5701 80.29 21.8601 86.45 21.8601C88.06 21.8601 89.31 22.4001 90.29 23.0201C89.22 25.1601 88.5 27.5701 88.5 29.7101C88.5 31.6701 89.39 33.1901 91.89 33.1901C94.12 33.1901 95.46 32.0301 95.46 29.3501C95.46 24.0901 91.09 20.4301 86.09 20.4301C76.54 20.4301 71.28 31.6701 71.28 45.0501C71.28 60.2201 76.99 68.34 84.93 68.34C91.71 68.34 95.64 62.5401 95.99 52.6401C96.08 52.0201 95.9 51.8401 95.45 51.7501H95.46Z" fill="#2C2A27"/>
<path d="M129.18 65.93H128.82C127.93 65.93 127.75 65.66 124.89 59.15L115.26 37.38L119.72 30.24C123.47 24.08 124.89 22.83 127.39 22.83H127.75C128.29 22.83 128.55 22.74 128.55 22.21V22.12C128.55 21.67 128.28 21.58 127.75 21.58H114.46C113.92 21.58 113.66 21.67 113.66 22.12V22.21C113.66 22.75 113.93 22.83 114.46 22.83H116.33C118.03 22.83 118.83 23.63 118.83 25.69C118.83 28.28 116.96 31.4 115.44 33.81C112.59 38.36 110 42.37 109.28 44.87H109.19V2.32003C109.19 1.52003 109.1 1.16003 108.39 1.16003H98.67C98.13 1.16003 97.87 1.25003 97.87 1.70003V1.79003C97.87 2.33003 98.14 2.41003 98.67 2.41003H101.35C102.87 2.41003 102.96 2.68003 102.96 9.19003V59.15C102.96 65.66 102.87 65.93 101.35 65.93H98.67C98.13 65.93 97.87 66.02 97.87 66.55V66.64C97.87 67.09 98.14 67.18 98.67 67.18H113.48C114.02 67.18 114.28 67.09 114.28 66.64V66.55C114.28 66.01 114.01 65.93 113.48 65.93H110.8C109.28 65.93 109.19 65.66 109.19 59.15V52.1C109.19 49.25 109.73 46.48 111.33 43.8L120.7 66.46C120.97 67 121.15 67.17 121.68 67.17H129.08C129.62 67.17 129.88 67.08 129.88 66.63V66.54C129.88 66 129.79 65.92 129.17 65.92L129.18 65.93Z" fill="#2C2A27"/>
<path d="M163.61 65.93H160.93C159.41 65.93 159.32 65.66 159.32 59.15V22.75C159.32 21.86 159.23 21.59 158.52 21.59H148.8C148.26 21.59 148 21.68 148 22.13V22.22C148 22.76 148.27 22.84 148.8 22.84H151.48C153 22.84 153.09 23.11 153.09 29.62V59.15C153.09 65.66 153 65.93 151.48 65.93H148.8C148.26 65.93 148 66.02 148 66.55V66.64C148 67.09 148.27 67.18 148.8 67.18H163.61C164.15 67.18 164.41 67.09 164.41 66.64V66.55C164.41 66.01 164.14 65.93 163.61 65.93Z" fill="#2C2A27"/>
<path d="M156.21 9.1C158.53 9.1 160.31 7.14 160.31 4.55C160.31 1.96 158.53 0 156.21 0C153.89 0 152.11 2.05 152.11 4.55C152.11 7.05 153.72 9.1 156.21 9.1Z" fill="#2C2A27"/>
<path d="M202.51 65.9301H199.83C198.31 65.9301 198.22 65.6601 198.22 59.1501V33.7201C198.22 24.1701 192.6 20.4301 187.51 20.4301C181.98 20.4301 178.68 23.7301 177.16 28.7301H177.07V22.7501C177.07 21.8601 176.98 21.5901 176.27 21.5901H166.99C166.45 21.5901 166.19 21.6801 166.19 22.1301V22.2201C166.19 22.7601 166.46 22.8401 166.99 22.8401H169.67C171.19 22.8401 171.28 23.1101 171.28 29.6201V59.1501C171.28 65.6601 171.19 65.9301 169.67 65.9301H166.99C166.45 65.9301 166.19 66.0201 166.19 66.5501V66.6401C166.19 67.0901 166.46 67.1801 166.99 67.1801H181.18C181.72 67.1801 181.98 67.0901 181.98 66.6401V66.5501C181.98 66.0101 181.71 65.9301 181.18 65.9301H179.13C177.61 65.9301 177.52 65.6601 177.52 59.1501V31.5801C178.95 25.9601 181 22.9301 185.46 22.9301C189.56 22.9301 191.97 25.6101 191.97 32.3901V59.1601C191.97 65.6701 191.88 65.9401 190.36 65.9401H188.31C187.77 65.9401 187.51 66.0301 187.51 66.5601V66.6501C187.51 67.1001 187.78 67.1901 188.31 67.1901H202.5C203.04 67.1901 203.3 67.1001 203.3 66.6501V66.5601C203.3 66.0201 203.03 65.9401 202.5 65.9401L202.51 65.9301Z" fill="#2C2A27"/>
<path d="M238.9 32.0301C234.44 28.0201 230.33 23.8201 230.33 15.8801C230.33 11.0601 232.47 7.32006 236.49 7.32006C241.04 7.32006 245.95 13.7401 245.95 23.9101V24.2701C245.95 24.8101 246.04 25.0701 246.49 25.0701H246.67C247.21 25.0701 247.29 24.8001 247.29 24.2701V7.32006C247.29 6.78006 247.2 6.52006 246.75 6.52006H246.66C246.12 6.52006 245.95 6.79006 245.95 7.32006L245.86 8.75006C243.81 7.32006 240.6 5.81006 237.03 5.81006C229.71 5.81006 225.07 12.6801 225.07 21.6001C225.07 29.9001 229.44 34.2701 233.9 38.3701C238.98 43.1001 244.61 47.2901 244.61 57.0201C244.61 63.0901 241.75 66.8301 236.76 66.8301C229.62 66.8301 225.61 56.2101 225.43 47.9101L225.34 46.9301C225.34 46.3901 225.25 46.1301 224.8 46.1301H224.62C224.08 46.1301 224 46.4001 224 46.9301L224.71 66.8301C224.71 67.3701 224.8 67.6301 225.25 67.6301H225.34C225.96 67.6301 226.05 67.3601 226.05 66.8301L226.14 65.4001C228.91 67.1001 232.39 68.3401 236.49 68.3401C245.32 68.3401 249.96 60.2201 249.96 51.5701C249.96 41.3101 244.16 36.7601 238.9 32.0301Z" fill="#2C2A27"/>
<path d="M269.41 20.4301C260.04 20.4301 254.78 31.9401 254.78 45.0501C254.78 60.2201 261.47 68.34 269.5 68.34C277.53 68.34 281.54 61.7401 282.08 52.6401C282.08 52.1001 281.99 51.8401 281.46 51.7501H281.19C280.65 51.7501 280.48 52.0201 280.48 52.5501C279.86 60.7601 277 65.84 271.02 65.84C263.7 65.84 261.83 58.4301 261.83 44.3401V41.4001H278.87C281.37 41.4001 282.08 40.7801 282.08 38.7201V38.3601C282.08 26.8501 275.92 20.4301 269.41 20.4301ZM270.84 39.8801H261.83C261.83 29.8901 263.35 21.8601 268.79 21.8601C273.34 21.8601 275.3 26.6801 275.3 36.2201C275.3 39.1601 274.23 39.8801 270.84 39.8801Z" fill="#2C2A27"/>
<path d="M299.74 40.6799C295.9 37.5599 292.33 34.4299 292.33 28.1899C292.33 24.7999 293.76 21.8599 297.06 21.8599C301.16 21.8599 304.2 27.5699 304.2 34.8899V35.4299C304.2 36.0499 304.29 36.3199 304.82 36.3199H304.91C305.45 36.3199 305.53 36.0499 305.53 35.4299V21.8699C305.53 21.3299 305.44 20.9799 304.99 20.9799H304.81C304.36 20.9799 304.27 21.1599 304.19 21.8699L304.1 23.2099C302.58 21.5999 300.09 20.4399 297.41 20.4399C291.79 20.4399 287.69 25.8799 287.69 32.6599C287.69 40.0699 291.97 43.4499 296.17 46.7599C300.1 49.9699 303.84 53.0899 303.84 59.6999C303.84 64.1599 301.61 67.0199 297.68 67.0199C291.88 67.0199 288.85 58.5399 288.49 53.0099L288.4 51.9399C288.31 51.3199 288.22 51.1399 287.69 51.1399H287.51C287.06 51.1399 286.97 51.4099 286.97 51.9399L287.68 66.8399C287.68 67.4599 287.77 67.7299 288.3 67.7299H288.39C288.84 67.7299 288.93 67.4599 289.01 66.8399L289.19 65.5899C291.15 67.1999 294.19 68.3599 297.4 68.3599C303.65 68.3599 308.46 63.0099 308.46 55.5099C308.46 48.0099 304.18 44.4499 299.72 40.6999L299.74 40.6799Z" fill="#2C2A27"/>
<path d="M325.61 40.6799C321.77 37.5599 318.2 34.4299 318.2 28.1899C318.2 24.7999 319.63 21.8599 322.93 21.8599C327.03 21.8599 330.07 27.5699 330.07 34.8899V35.4299C330.07 36.0499 330.16 36.3199 330.69 36.3199H330.78C331.32 36.3199 331.4 36.0499 331.4 35.4299V21.8699C331.4 21.3299 331.31 20.9799 330.86 20.9799H330.68C330.23 20.9799 330.14 21.1599 330.06 21.8699L329.97 23.2099C328.45 21.5999 325.96 20.4399 323.28 20.4399C317.66 20.4399 313.56 25.8799 313.56 32.6599C313.56 40.0699 317.84 43.4499 322.04 46.7599C325.97 49.9699 329.71 53.0899 329.71 59.6999C329.71 64.1599 327.48 67.0199 323.55 67.0199C317.75 67.0199 314.72 58.5399 314.36 53.0099L314.27 51.9399C314.18 51.3199 314.09 51.1399 313.56 51.1399H313.38C312.93 51.1399 312.84 51.4099 312.84 51.9399L313.55 66.8399C313.55 67.4599 313.64 67.7299 314.17 67.7299H314.26C314.71 67.7299 314.8 67.4599 314.88 66.8399L315.06 65.5899C317.02 67.1999 320.06 68.3599 323.27 68.3599C329.52 68.3599 334.33 63.0099 334.33 55.5099C334.33 48.0099 330.05 44.4499 325.59 40.6999L325.61 40.6799Z" fill="#2C2A27"/>
<path d="M345.51 9.1C347.83 9.1 349.61 7.14 349.61 4.55C349.61 1.96 347.83 0 345.51 0C343.19 0 341.41 2.05 341.41 4.55C341.41 7.05 343.02 9.1 345.51 9.1Z" fill="#2C2A27"/>
<path d="M352.91 65.93H350.23C348.71 65.93 348.62 65.66 348.62 59.15V22.75C348.62 21.86 348.53 21.59 347.82 21.59H338.1C337.56 21.59 337.3 21.68 337.3 22.13V22.22C337.3 22.76 337.57 22.84 338.1 22.84H340.78C342.3 22.84 342.39 23.11 342.39 29.62V59.15C342.39 65.66 342.3 65.93 340.78 65.93H338.1C337.56 65.93 337.3 66.02 337.3 66.55V66.64C337.3 67.09 337.57 67.18 338.1 67.18H352.91C353.45 67.18 353.71 67.09 353.71 66.64V66.55C353.71 66.01 353.44 65.93 352.91 65.93Z" fill="#2C2A27"/>
<path d="M371.65 20.4301C362.19 20.4301 356.13 30.6001 356.13 45.2301C356.13 59.8601 361.93 68.34 371.12 68.34C380.31 68.34 386.56 57.9901 386.56 43.3601C386.56 28.7301 380.85 20.4301 371.66 20.4301H371.65ZM371.29 66.9101C364.96 66.9101 363.26 59.0601 363.26 45.0501C363.26 29.9701 365.04 21.8501 371.38 21.8501C377.72 21.8501 379.41 29.5201 379.41 43.5301C379.41 58.5201 377.71 66.9101 371.29 66.9101Z" fill="#2C2A27"/>
<path d="M425.35 65.9301H422.67C421.15 65.9301 421.06 65.6601 421.06 59.1501V33.7201C421.06 24.1701 415.44 20.4301 410.35 20.4301C404.82 20.4301 401.52 23.7301 400 28.7301H399.91V22.7501C399.91 21.8601 399.82 21.5901 399.11 21.5901H389.83C389.29 21.5901 389.03 21.6801 389.03 22.1301V22.2201C389.03 22.7601 389.3 22.8401 389.83 22.8401H392.51C394.03 22.8401 394.12 23.1101 394.12 29.6201V59.1501C394.12 65.6601 394.03 65.9301 392.51 65.9301H389.83C389.29 65.9301 389.03 66.0201 389.03 66.5501V66.6401C389.03 67.0901 389.3 67.1801 389.83 67.1801H404.02C404.56 67.1801 404.82 67.0901 404.82 66.6401V66.5501C404.82 66.0101 404.55 65.9301 404.02 65.9301H401.97C400.45 65.9301 400.36 65.6601 400.36 59.1501V31.5801C401.79 25.9601 403.84 22.9301 408.3 22.9301C412.4 22.9301 414.81 25.6101 414.81 32.3901V59.1601C414.81 65.6701 414.72 65.9401 413.2 65.9401H411.15C410.61 65.9401 410.35 66.0301 410.35 66.5601V66.6501C410.35 67.1001 410.62 67.1901 411.15 67.1901H425.34C425.88 67.1901 426.14 67.1001 426.14 66.6501V66.5601C426.14 66.0201 425.87 65.9401 425.34 65.9401L425.35 65.9301Z" fill="#2C2A27"/>
</g>
<defs>
<clipPath id="clip0_8233_2004">
<rect width="426.15" height="68.34" fill="white"/>
</clipPath>
</defs>
</svg>
