<?xml version="1.0" encoding="UTF-8"?>
<svg id="Layer_1" xmlns="http://www.w3.org/2000/svg" version="1.1" viewBox="0 0 223.72 34.62">
  <!-- Generator: Adobe Illustrator 29.5.1, SVG Export Plug-In . SVG Version: 2.1.0 Build 141)  -->
  <defs>
    <style>
      .st0 {
        fill: #fcfcfa;
      }

      .st1 {
        fill: none;
        stroke: #fcfcfa;
        stroke-miterlimit: 10;
        stroke-width: .72px;
      }
    </style>
  </defs>
  <g>
    <path class="st0" d="M13.76,18.83v.28c.04,1.52.16,1.81.78,2.09.52.22,2.03.32,4.85.32,1.73,0,3.51-.12,4.27-.3.86-.18,1.28-.84,1.28-1.97s-.24-1.66-.9-1.89-.66-.24-7.22-.24c-3.51,0-4.81-1-4.81-3.71,0-1.2.34-2.07,1-2.61.66-.54,1.32-.76,2.75-.94,1-.12,2.83-.22,4.19-.22,2.99,0,4.47.28,5.38,1.02.76.6.98,1.26,1,2.97h-1.78v-.2c0-.98-.1-1.32-.42-1.56-.64-.52-1.85-.72-4.31-.72-3.41,0-4.97.24-5.58.84-.28.28-.42.76-.42,1.44,0,1.18.22,1.58,1.06,1.83.64.22,1.66.3,3.49.32q.86,0,4.33.02c1.89,0,2.79.32,3.43,1.18.42.56.62,1.32.62,2.33,0,1.64-.46,2.63-1.48,3.19-.98.52-2.89.72-7.02.72-2.93,0-4.09-.14-4.93-.62-.98-.54-1.3-1.28-1.3-2.97,0-.04,0-.36.02-.6h1.71Z"/>
    <path class="st0" d="M29.65,9.68v7.62h.86l5.58-3.55h2.31l-6.44,4.21,7.38,5.03h-2.43l-6.5-4.39h-.76v4.39h-1.46v-13.3h1.46Z"/>
    <path class="st0" d="M39.81,16.52v-.4c0-1.93,1.18-2.49,5.18-2.49,3.13,0,4.21.22,4.99,1.04.64.64.78,1.26.78,3.45v4.87h-1.46l.02-1.08h-.06c-.7,1-1.38,1.2-4.19,1.2-3.23,0-4.15-.12-4.81-.6-.64-.48-.86-1.04-.86-2.19,0-1.44.34-2.13,1.26-2.51.56-.24,1.42-.32,3.45-.32,3.79,0,4.43.12,5.07,1h.12v-1c0-.96-.1-1.36-.44-1.75-.52-.64-1.36-.82-3.77-.82-2.67,0-3.37.16-3.63.84-.06.12-.1.38-.12.78h-1.54ZM41.54,19.07c-.4.24-.58.64-.58,1.26,0,.66.2,1,.68,1.24.42.2,1.4.26,3.73.26,3.09,0,3.83-.3,3.83-1.54s-.88-1.52-4.13-1.52c-2.39,0-3.13.06-3.53.3Z"/>
    <path class="st0" d="M55.22,11.45v2.29h6.46v1.26h-6.46v3.99c.04,1.75.04,1.81.34,2.19.38.46,1.04.64,2.43.64,1.3,0,1.79-.14,2.11-.64.22-.34.28-.68.28-1.81v-.58h1.46v.58c0,1.46-.12,2.03-.5,2.59-.54.82-1.54,1.14-3.49,1.14s-3.03-.3-3.57-1.04c-.4-.56-.52-1.14-.52-2.59v-4.47h-2.27v-1.26h2.27v-2.29h1.46Z"/>
    <path class="st0" d="M74.69,20.13c-.06,2.21-1.36,2.97-5.11,2.97-3.09,0-4.53-.22-5.34-.8-.94-.66-1.4-1.93-1.4-3.91,0-2.19.5-3.49,1.63-4.15.78-.46,1.83-.62,4.15-.62,3.17,0,4.29.26,5.15,1.22.7.82.9,1.66.94,3.85h-10.29c.04,1.2.24,1.91.68,2.37.56.58,1.56.76,4.33.76,2.09,0,2.91-.16,3.39-.7.24-.24.28-.4.34-1h1.54ZM73.09,17.44c-.02-2.03-.92-2.53-4.51-2.53-3.19,0-3.97.48-4.13,2.53h8.63Z"/>
    <path class="st0" d="M77.48,13.75v1.24h.1c.24-.42.56-.72,1.04-.98.56-.28,1.34-.38,3.15-.38s2.55.16,3.17.7c.62.54.94,1.42.94,2.61v.96h-1.5v-.66c0-1.91-.5-2.33-2.77-2.33-3.51,0-4.13.56-4.13,3.81v4.27h-1.46v-9.23h1.46Z"/>
    <path class="st0" d="M91.94,9.68h8.82q2.43.04,3.03.08c1.22.1,2.13.62,2.59,1.48.28.5.38.98.38,1.85,0,1.74-.4,2.45-1.64,2.91,1.58.26,2.15,1.12,2.15,3.21,0,1.36-.24,2.21-.74,2.73-.76.8-2.15,1.04-5.78,1.04h-8.82v-13.3ZM100.75,15.4c2.37,0,2.95-.06,3.43-.34.52-.28.76-.84.76-1.75,0-.8-.18-1.4-.52-1.66-.44-.34-.54-.36-3.67-.42h-7.04v4.17h7.04ZM100.75,21.43c2.77,0,3.67-.12,4.19-.54.34-.3.52-.86.52-1.71,0-.92-.18-1.5-.58-1.77q-.54-.38-4.13-.44h-7.04v4.47h7.04Z"/>
    <path class="st0" d="M108.85,16.52v-.4c0-1.93,1.18-2.49,5.18-2.49,3.13,0,4.21.22,4.99,1.04.64.64.78,1.26.78,3.45v4.87h-1.46l.02-1.08h-.06c-.7,1-1.38,1.2-4.19,1.2-3.23,0-4.15-.12-4.81-.6-.64-.48-.86-1.04-.86-2.19,0-1.44.34-2.13,1.26-2.51.56-.24,1.42-.32,3.45-.32,3.79,0,4.43.12,5.07,1h.12v-1c0-.96-.1-1.36-.44-1.75-.52-.64-1.36-.82-3.77-.82-2.67,0-3.37.16-3.63.84-.06.12-.1.38-.12.78h-1.54ZM110.59,19.07c-.4.24-.58.64-.58,1.26,0,.66.2,1,.68,1.24.42.2,1.4.26,3.73.26,3.09,0,3.83-.3,3.83-1.54s-.88-1.52-4.13-1.52c-2.39,0-3.13.06-3.53.3Z"/>
    <path class="st0" d="M133.14,13.75v6.92c0,1.4-.08,2.59-.22,3.31-.2.96-.96,1.81-1.91,2.09-.86.28-1.88.36-4.11.36-3.09,0-4.37-.34-5.11-1.34-.34-.46-.44-.8-.44-1.66h1.52c.12,1.36.9,1.72,3.87,1.72,2.79,0,3.85-.2,4.35-.84.42-.52.5-.98.58-2.87h-.1c-.8,1-1.54,1.2-4.51,1.2-2.51,0-3.77-.2-4.49-.72-1-.74-1.46-1.93-1.46-3.81,0-2.09.62-3.37,1.89-3.97.8-.4,1.89-.52,4.35-.52,1.99,0,2.71.1,3.33.44.42.24.66.46.92.86h.08l-.02-1.18h1.48ZM123.75,15.36c-.72.36-1.08,1.3-1.08,2.79,0,1.58.38,2.45,1.22,2.85.5.26,1.52.36,3.27.36,2,0,2.97-.14,3.51-.48.72-.48,1-1.28,1-2.89,0-2.55-.76-3.09-4.31-3.09-1.93,0-2.97.14-3.61.46Z"/>
    <path class="st0" d="M146.57,13.75v6.92c0,1.4-.08,2.59-.22,3.31-.2.96-.96,1.81-1.91,2.09-.86.28-1.88.36-4.11.36-3.09,0-4.37-.34-5.11-1.34-.34-.46-.44-.8-.44-1.66h1.52c.12,1.36.9,1.72,3.87,1.72,2.79,0,3.85-.2,4.35-.84.42-.52.5-.98.58-2.87h-.1c-.8,1-1.54,1.2-4.51,1.2-2.51,0-3.77-.2-4.49-.72-1-.74-1.46-1.93-1.46-3.81,0-2.09.62-3.37,1.89-3.97.8-.4,1.89-.52,4.35-.52,1.99,0,2.71.1,3.33.44.42.24.66.46.92.86h.08l-.02-1.18h1.48ZM137.17,15.36c-.72.36-1.08,1.3-1.08,2.79,0,1.58.38,2.45,1.22,2.85.5.26,1.52.36,3.27.36,2,0,2.97-.14,3.51-.48.72-.48,1-1.28,1-2.89,0-2.55-.76-3.09-4.31-3.09-1.93,0-2.97.14-3.61.46Z"/>
    <path class="st0" d="M149.12,13.75l4.45,8.06h.2l4.15-8.06h1.71l-4.51,8.6c-1.06,2.05-1.54,2.71-2.27,3.23-.7.48-1.4.64-2.91.64-.34,0-.52,0-.82-.02v-1.34c.28.04.4.04.68.04,1.93,0,2.43-.3,3.31-1.91h-.5l-5.21-9.23h1.71Z"/>
    <path class="st0" d="M166.97,18.45v.52c.02,1.48.2,1.97.84,2.19.46.18,2.81.3,5.3.3,1,0,3.05-.08,3.73-.16,1.18-.12,1.48-.58,1.48-2.37,0-1.08-.24-1.52-.96-1.77-.26-.1-1.85-.24-2.79-.24h-3.75v-1.52h4.25c2.63,0,3.11-.32,3.11-2.01,0-1.14-.26-1.7-.92-1.91-.54-.18-2.09-.28-4.53-.28-3.53,0-4.85.16-5.29.6-.26.3-.28.44-.3,2.29h-1.82c.04-2.35.2-3.03.88-3.61.54-.46,1.08-.64,2.29-.74.66-.04,2.87-.1,4.29-.1,3.87,0,5.19.14,6,.66.86.56,1.16,1.26,1.16,2.81,0,1.99-.26,2.47-1.66,3.03,1.4.38,1.79,1.06,1.79,3.11,0,1.88-.44,2.79-1.6,3.31-.74.34-2.25.46-5.66.46-2.41,0-4.63-.1-5.44-.26-.98-.18-1.78-.86-1.97-1.72-.18-.7-.2-1.04-.2-2.59h1.75Z"/>
    <path class="st0" d="M194.69,13.57c-.04-2.23-.36-2.37-5.12-2.37-2.99,0-4.41.14-4.97.5-.6.38-.76,1-.76,3.01,0,.96,0,1.2.04,1.68.88-1.16,1.7-1.38,5.31-1.38,4.25,0,5.38.1,6.16.6.9.56,1.32,1.56,1.32,3.19,0,1.97-.56,3.15-1.75,3.67-.92.42-2.51.56-5.98.56-4.09,0-5.05-.18-5.92-1.1-.82-.88-.94-1.6-.94-5.94,0-3.27.16-4.23.8-5.01.88-1.06,2.29-1.34,6.56-1.34s5.21.16,6.16,1.04c.66.62.84,1.24.84,2.89h-1.74ZM184.68,17.06c-.52.34-.78.96-.78,1.88,0,1.14.32,1.83.94,2.11.56.26,2.31.42,4.51.42,2.65,0,4.31-.18,4.83-.5.5-.32.72-.94.72-2.11,0-1.04-.22-1.58-.72-1.89-.46-.26-1.79-.4-4.07-.4-3.49,0-4.87.12-5.42.5Z"/>
    <path class="st0" d="M211.01,9.96c1.24.24,2.09,1.1,2.35,2.29.16.82.24,2.01.24,3.77,0,3.55-.3,5.17-1.08,5.94-.58.58-1.38.82-3.15.94-.8.06-2.51.12-3.63.12-3.93,0-5.6-.3-6.42-1.18-.78-.82-1-2.05-1-5.48,0-1.66.12-3.15.3-4.09.24-1.2.94-1.97,2.03-2.25,1-.28,2.41-.38,4.87-.38s4.47.12,5.48.32ZM200.76,11.83c-.32.32-.46.8-.58,1.91-.06.68-.12,2.05-.12,2.81,0,2.39.2,3.73.64,4.17.48.52,2.03.74,5,.74,3.45,0,4.97-.2,5.46-.7.48-.46.7-1.81.7-4.13,0-2.79-.2-4.27-.62-4.75-.5-.54-1.75-.7-5.66-.7-3.13,0-4.35.16-4.83.64Z"/>
  </g>
  <rect class="st1" x=".36" y=".36" width="223" height="33.91" rx="4.81" ry="4.81"/>
</svg>